<svg xmlns="http://www.w3.org/2000/svg" viewBox="0 0 32 32">
    <path d="M13.33 3.68c.13.05.27.1.4.17l1.59.78a1.55 1.55 0 0 0 1.36 0l1.59-.78a3.4 3.4 0 0 1 4.55 1.55l.09.2.08.2.57 1.68c.15.45.5.8.96.96l1.68.57a3.4 3.4 0 0 1 1.95 4.72l-.78 1.59a1.54 1.54 0 0 0 0 1.36l.78 1.59a3.4 3.4 0 0 1-1.95 4.72l-1.68.57a1.54 1.54 0 0 0-.96.96l-.57 1.68a3.4 3.4 0 0 1-4.72 1.95l-1.59-.78a1.55 1.55 0 0 0-1.36 0l-1.59.78a3.4 3.4 0 0 1-4.72-1.95l-.57-1.68a1.54 1.54 0 0 0-.96-.96l-1.68-.57a3.4 3.4 0 0 1-1.95-4.72l.78-1.59a1.54 1.54 0 0 0 0-1.36l-.78-1.59A3.4 3.4 0 0 1 5.8 9.01l1.68-.57a1.54 1.54 0 0 0 .96-.96l.57-1.67a3.4 3.4 0 0 1 4.32-2.13ZM10.77 6.4l-.57 1.67a3.4 3.4 0 0 1-2.13 2.13l-1.67.57a1.55 1.55 0 0 0-.89 2.14l.78 1.59a3.4 3.4 0 0 1 0 3l-.78 1.59a1.55 1.55 0 0 0 .9 2.14l1.66.57a3.4 3.4 0 0 1 2.13 2.13l.57 1.67a1.54 1.54 0 0 0 2.14.89l1.59-.78a3.4 3.4 0 0 1 3 0l1.59.78a1.55 1.55 0 0 0 2.14-.9l.57-1.66a3.4 3.4 0 0 1 2.12-2.13l1.68-.57a1.54 1.54 0 0 0 .89-2.14l-.78-1.59a3.4 3.4 0 0 1 0-3l.78-1.59a1.54 1.54 0 0 0-.9-2.14l-1.67-.57a3.4 3.4 0 0 1-2.12-2.13l-.57-1.67-.03-.1-.04-.08-.08-.14a1.55 1.55 0 0 0-2-.57l-1.58.78a3.4 3.4 0 0 1-3 0l-1.59-.78a1.55 1.55 0 0 0-2.14.9Zm2.82 12.55 6.7-6.7a.93.93 0 0 1 1.4 1.21l-.09.1-7.42 7.42a.93.93 0 0 1-1.27.04l-.1-.1-3.08-3.7a.93.93 0 0 1 1.32-1.3l.1.1 2.44 2.93Z"/>
</svg>
